<?xml version="1.0" encoding="utf-8"?>
<!-- Generator: Adobe Illustrator 16.0.0, SVG Export Plug-In . SVG Version: 6.00 Build 0)  -->
<!DOCTYPE svg PUBLIC "-//W3C//DTD SVG 1.1//EN" "http://www.w3.org/Graphics/SVG/1.1/DTD/svg11.dtd">
<svg version="1.1" id="Circled_plus" xmlns="http://www.w3.org/2000/svg" xmlns:xlink="http://www.w3.org/1999/xlink" x="0px"
	 y="0px" width="792px" height="792px" viewBox="0 231.84 792 792" enable-background="new 0 231.84 792 792" xml:space="preserve">
<path d="M594,667.6H435.6V826H356.4V667.6H198V588.4h158.4V430H435.6v158.4H594V667.6z M396,247.84
	C186.041,247.84,15.84,418.041,15.84,628c0,209.999,170.201,380.16,380.16,380.16S776.16,837.999,776.16,628
	C776.16,418.041,605.959,247.84,396,247.84z M396,958.818C213.246,958.818,65.182,810.715,65.182,628S213.246,297.182,396,297.182
	c182.675,0,330.818,148.104,330.818,330.818S578.675,958.818,396,958.818z"/>
</svg>
