<?xml version="1.0" encoding="utf-8"?>
<!-- Generator: Adobe Illustrator 16.0.0, SVG Export Plug-In . SVG Version: 6.00 Build 0)  -->
<!DOCTYPE svg PUBLIC "-//W3C//DTD SVG 1.1//EN" "http://www.w3.org/Graphics/SVG/1.1/DTD/svg11.dtd">
<svg version="1.1" id="Layer_1" xmlns="http://www.w3.org/2000/svg" xmlns:xlink="http://www.w3.org/1999/xlink" x="0px" y="0px"
	 width="24px" height="24px" viewBox="-3.5 -3.5 24 24" enable-background="new -3.5 -3.5 24 24" xml:space="preserve">
<title>Shape</title>
<desc>Created with Sketch.</desc>
<path id="LoggedIn_Small-Copy" transform="translate(-287.000000, -77.000000)" d="M302.361,85.5c0-1.062,0.654-1.897,1.637-2.472
	c-0.178-0.591-0.412-1.158-0.7-1.691c-1.103,0.288-1.993-0.143-2.743-0.894c-0.75-0.749-0.979-1.64-0.691-2.743
	c-0.533-0.289-1.1-0.524-1.691-0.699c-0.574,0.981-1.613,1.634-2.673,1.634c-1.061,0-2.099-0.653-2.674-1.634
	c-0.592,0.175-1.157,0.411-1.69,0.699c0.288,1.103,0.06,1.994-0.692,2.743c-0.749,0.75-1.64,1.182-2.743,0.894
	c-0.289,0.533-0.523,1.101-0.699,1.691c0.981,0.575,1.634,1.411,1.634,2.472c0,1.059-0.652,2.098-1.634,2.674
	c0.177,0.591,0.411,1.158,0.699,1.691c1.103-0.288,1.994-0.06,2.743,0.69c0.75,0.751,0.98,1.642,0.692,2.743
	c0.533,0.288,1.1,0.523,1.691,0.701c0.575-0.984,1.614-1.637,2.674-1.637c1.06,0,2.099,0.653,2.674,1.637
	c0.592-0.178,1.158-0.413,1.691-0.701c-0.287-1.102-0.059-1.992,0.691-2.743c0.75-0.749,1.642-1.18,2.743-0.894
	c0.288-0.533,0.522-1.099,0.7-1.691C303.016,87.395,302.361,86.559,302.361,85.5L302.361,85.5z M295.5,89
	c-1.934,0-3.5-1.566-3.5-3.499c0-1.934,1.568-3.501,3.5-3.501c1.933,0,3.5,1.568,3.5,3.501C299,87.435,297.434,89,295.5,89L295.5,89
	z"/>
</svg>
