<?xml version="1.0" encoding="utf-8"?>
<!-- Generator: Adobe Illustrator 16.0.0, SVG Export Plug-In . SVG Version: 6.00 Build 0)  -->
<!DOCTYPE svg PUBLIC "-//W3C//DTD SVG 1.1//EN" "http://www.w3.org/Graphics/SVG/1.1/DTD/svg11.dtd">
<svg version="1.1" id="Layer_1" xmlns="http://www.w3.org/2000/svg" xmlns:xlink="http://www.w3.org/1999/xlink" x="0px" y="0px"
	 width="300px" height="300px" viewBox="0 0 300 300" enable-background="new 0 0 300 300" xml:space="preserve">
<path d="M114.035,187.906c8.668,8.668,8.668,22.771,0,31.439l-55.093,55.096c-8.668,8.666-22.771,8.668-31.442,0
	c-8.668-8.67-8.666-22.773,0-31.441l55.096-55.094C91.264,179.238,105.367,179.238,114.035,187.906z M253.234,177.65
	c-35.604,35.607-93.336,35.607-128.943,0c-35.608-35.607-35.608-93.336,0-128.944c35.607-35.607,93.339-35.607,128.943,0
	C288.844,84.313,288.844,142.043,253.234,177.65z M233.75,68.191c-24.846-24.844-65.127-24.844-89.974,0
	c-24.844,24.846-24.844,65.128,0,89.974c24.847,24.844,65.128,24.844,89.974,0C258.594,133.319,258.594,93.037,233.75,68.191z"/>
</svg>
